<?xml version="1.0" encoding="UTF-8" standalone="no"?>
<!-- Created with Inkscape (http://www.inkscape.org/) -->

<svg
   xmlns:dc="http://purl.org/dc/elements/1.1/"
   xmlns:cc="http://creativecommons.org/ns#"
   xmlns:rdf="http://www.w3.org/1999/02/22-rdf-syntax-ns#"
   xmlns:svg="http://www.w3.org/2000/svg"
   xmlns="http://www.w3.org/2000/svg"
   xmlns:sodipodi="http://sodipodi.sourceforge.net/DTD/sodipodi-0.dtd"
   xmlns:inkscape="http://www.inkscape.org/namespaces/inkscape"
   id="svg3336"
   version="1.1"
   inkscape:version="0.91 r13725"
   width="276.5625"
   height="377.8125"
   viewBox="0 0 276.5625 377.8125"
   sodipodi:docname="gafor2.svg">
  <metadata
     id="metadata3342">
    <rdf:RDF>
      <cc:Work
         rdf:about="">
        <dc:format>image/svg+xml</dc:format>
        <dc:type
           rdf:resource="http://purl.org/dc/dcmitype/StillImage" />
        <dc:title />
      </cc:Work>
    </rdf:RDF>
  </metadata>
  <defs
     id="defs3340" />
  <sodipodi:namedview
     pagecolor="#ffffff"
     bordercolor="#666666"
     borderopacity="1"
     objecttolerance="10"
     gridtolerance="10"
     guidetolerance="10"
     inkscape:pageopacity="0"
     inkscape:pageshadow="2"
     inkscape:window-width="1366"
     inkscape:window-height="716"
     id="namedview3338"
     showgrid="false"
     inkscape:zoom="11.624814"
     inkscape:cx="166.30409"
     inkscape:cy="92.90401"
     inkscape:window-x="-8"
     inkscape:window-y="-8"
     inkscape:window-maximized="1"
     inkscape:current-layer="svg3336" />
  <path
     style="fill:none;fill-rule:evenodd;stroke:#000000;stroke-width:1px;stroke-linecap:butt;stroke-linejoin:miter;stroke-opacity:1"
     d="m 31.828467,6.7097844 c 1.032274,0 40.946892,2.0645492 40.946892,2.0645492 L 72.087176,55.22669 29.591872,54.710553 Z"
     id="gafor_00"
     inkscape:connector-curvature="0" />
  <path
     style="fill:none;fill-rule:evenodd;stroke:#000000;stroke-width:1px;stroke-linecap:butt;stroke-linejoin:miter;stroke-opacity:1"
     d="m 72.947404,8.7743336 10.322746,-3.0968237 4.645236,7.2259221 7.742059,1.548412 3.26887,3.612961 0.344092,10.494792 2.064553,6.88183 0.51613,3.26887 -1.03227,1.548412 0,3.268869 1.03227,2.924778 -0.34409,3.612961 -0.86023,0.516138 0.68819,3.096823 -1.548416,1.032275 0.516136,2.752732 -1.720457,1.892504 1.892507,4.645235 -5.849559,1.032275 -2.064549,-1.032275 -2.752733,-2.752732 -17.548668,-6.193648 z"
     id="gafor_02"
     inkscape:connector-curvature="0" />
  <path
     style="fill:none;fill-rule:evenodd;stroke:#000000;stroke-width:1px;stroke-linecap:butt;stroke-linejoin:miter;stroke-opacity:1"
     d="m 96.68972,15.312073 3.26887,-0.344092 1.37637,1.548412 7.9141,-0.516137 -0.17204,4.817281 1.72045,2.064549 0.51614,2.924778 1.03227,1.032275 0,3.26887 0.68819,1.376366 0.17204,1.720457 2.75274,3.440916 0.68818,1.20432 3.78501,5.505464 2.75273,3.26887 3.61296,3.096824 3.78501,2.40864 2.06454,2.06455 1.37637,4.301144 1.20432,5.67751 1.37637,7.570014 -4.1291,5.161373 -1.72046,3.096823 -2.40864,0.688183 -5.33342,0.172046 -2.92478,-2.924778 -2.58068,-0.172046 -3.61296,-2.236594 -0.17205,-1.892504 -3.26887,-4.47319 -3.44091,-5.67751 -6.53774,-0.344092 -1.720461,-3.957052 1.892501,-1.376366 -0.860226,-3.26887 1.892506,-1.032274 -1.20432,-3.096824 1.20432,-0.860229 0.51613,-3.612961 -1.20432,-2.236595 -0.51613,-3.440915 1.72045,-2.580687 -0.34409,-2.236595 -2.752729,-7.053876 -0.344092,-10.322746 z"
     id="gafor_03"
     inkscape:connector-curvature="0" />
  <path
     style="fill:none;fill-rule:evenodd;stroke:#000000;stroke-width:1px;stroke-linecap:butt;stroke-linejoin:miter;stroke-opacity:1"
     d="m 109.59315,16.000256 2.75273,1.20432 3.78501,0.344092 2.06455,1.032274 3.09682,-0.172046 2.06455,-1.548411 0.86023,0 2.06455,2.752732 14.45185,7.225922 14.45184,0 13.41957,6.537739 7.74206,2.580687 5.16137,0.344091 -11.35502,8.774334 -8.08615,6.193648 -4.64523,3.440915 -2.92478,2.752732 -1.37637,0 -2.06455,3.612961 -1.54841,4.129099 -1.37637,3.957052 -0.17204,4.817282 0.51614,1.376366 0.17204,4.817281 -1.20432,0.688183 0,5.849556 -7.74206,0.172046 -1.54841,-1.20432 -5.84956,0.172045 -5.50546,-3.785006 3.09682,-1.548412 6.70979,-8.94638 -3.78501,-17.89276 -4.1291,-3.096823 -5.67751,-4.47319 -6.0216,-7.914106 -3.61296,-4.817281 0,-2.064549 -1.03228,-0.860229 0,-3.612961 -1.03227,-1.20432 -0.17205,-2.580687 -2.06454,-2.580686 z"
     id="gafor_04"
     inkscape:connector-curvature="0" />
  <path
     style="fill:none;fill-rule:evenodd;stroke:#000000;stroke-width:1px;stroke-linecap:butt;stroke-linejoin:miter;stroke-opacity:1"
     d="m 181.68033,35.785519 18.0648,-18.408897 1.72046,0 4.30115,-4.817282 15.82821,0 -3.09683,12.387296 -1.8925,9.290471 -1.20432,8.602288 -11.35502,22.36595 -8.77434,2.752732 -2.75273,-0.172046 -2.92478,-1.032274 -18.75299,0 -0.86022,1.032274 -17.54867,0 -2.75273,-2.064549 3.26887,-8.430243 1.72045,-0.344091 z"
     id="gafor_11"
     inkscape:connector-curvature="0" />
  <path
     style="fill:none;fill-rule:evenodd;stroke:#000000;stroke-width:1px;stroke-linecap:butt;stroke-linejoin:miter;stroke-opacity:1"
     d="m 221.93904,12.387295 c 0.68818,-0.344092 11.52706,0.172045 11.52706,0.172045 l 0.68819,-1.032274 10.66683,0.172046 0.51614,16.516393 -1.20432,2.752732 0.17205,17.376623 -1.03228,0.860228 -0.17204,1.032275 1.20432,2.064549 0,8.258197 1.20432,0.860229 4.64523,18.580942 -6.88183,0.172046 -1.72046,-1.032274 -3.09682,-1.204321 -0.86023,1.376366 -4.30114,-4.301144 -1.37637,0 -9.29047,-5.161373 -4.1291,-1.20432 -4.64523,-0.860229 -9.29048,-3.268869 11.01093,-21.677767 2.58069,-17.032531 z"
     id="gafor_12"
     inkscape:connector-curvature="0" />
  <path
     style="fill:none;fill-rule:evenodd;stroke:#000000;stroke-width:1px;stroke-linecap:butt;stroke-linejoin:miter;stroke-opacity:1"
     d="m 189.93852,67.44194 0,7.570013 1.20433,1.548412 -0.17205,3.096824 -1.37637,0.860229 0.51614,9.290471 2.06455,-0.344091 5.33342,7.053876 1.72046,3.440915 -1.89251,2.924781 1.03228,1.37636 -3.61296,5.33342 3.61296,1.37637 2.75273,1.03227 5.33342,-0.51613 1.8925,1.54841 3.44092,0 1.20432,1.20432 1.37636,0 1.20432,-1.20432 4.1291,-0.17205 2.58069,-3.09682 4.98933,0.17204 1.03227,-1.20432 10.49479,0.68819 1.37637,-1.54842 4.64523,0.3441 1.03228,-1.54842 -2.2366,-2.92477 6.3657,-5.677514 0.34409,-6.881831 1.37636,-1.892503 -1.72045,-9.290472 -6.70979,-0.516137 -4.64523,-1.720458 -1.03228,1.720458 -4.1291,-4.817281 -1.03227,0.344091 -10.1507,-5.333418 -17.72072,-5.333419 -8.94637,3.785007 -2.40865,0 z"
     id="gafor_14"
     inkscape:connector-curvature="0" />
  <path
     style="fill:none;fill-rule:evenodd;stroke:#000000;stroke-width:1px;stroke-linecap:butt;stroke-linejoin:miter;stroke-opacity:1"
     d="m 147.27118,87.055157 -0.51614,2.924778 5.67751,3.957052 4.30114,3.612961 5.16138,0 3.09682,3.612962 1.54841,-0.51614 2.40864,1.03228 1.37637,1.03227 2.75273,-0.17204 1.54841,1.37636 5.84956,0.34409 7.57001,5.16138 6.19365,-0.17205 4.1291,-4.98933 -1.20432,-1.20432 1.8925,-3.612958 -6.53774,-10.322746 -2.40864,0.172046 -0.34409,-9.290472 1.37637,-0.516137 0.51613,-3.096824 -1.72046,-1.548412 0,-8.430242 -18.92503,0.344092 -1.03227,1.548411 -17.03253,-0.688183 -3.26887,-1.720457 -1.89251,5.333418 0.17205,2.580687 0.86023,1.548412 0,4.301144 -1.20432,1.032274 z"
     id="gafor_13"
     inkscape:connector-curvature="0" />
  <path
     style="fill:none;fill-rule:evenodd;stroke:#000000;stroke-width:1px;stroke-linecap:butt;stroke-linejoin:miter;stroke-opacity:1"
     d="m 29.591872,54.710553 0.172045,15.140027 2.06455,2.064549 1.548411,2.408641 2.06455,3.785007 2.752732,2.580686 2.236595,3.612962 1.892503,3.096823 6.193648,0.860229 -1.204321,-4.301144 4.817282,-4.47319 1.376366,0 2.064549,1.720458 4.129099,0 1.548411,0.860229 4.645236,-0.172046 3.26887,3.268869 6.021601,-0.172045 1.720458,0.860228 1.548412,0.344092 c 0,0 -0.344092,-1.548412 0.516137,-1.548412 0.860229,0 8.258197,-0.172046 8.258197,-0.172046 l 1.548412,-0.860229 7.742059,0 2.064549,-0.688183 1.548417,-0.516137 -0.860233,-4.129098 1.204323,-1.548412 1.03227,-1.376366 0.17205,-6.365694 -2.752735,-5.161373 -4.129098,1.204321 L 93.248805,64.001024 90.151981,60.9042 72.087176,55.054644 Z"
     id="gafor_01"
     inkscape:connector-curvature="0" />
  <path
     style="fill:none;fill-rule:evenodd;stroke:#000000;stroke-width:1px;stroke-linecap:butt;stroke-linejoin:miter;stroke-opacity:1"
     d="m 48.34486,87.74334 0.172046,6.365693 -1.204321,0.344092 -0.516137,6.365695 -0.516137,3.09682 1.548412,1.37637 3.268869,0 1.376366,1.03227 11.527067,0.34409 2.064549,-1.03227 9.118425,-0.51614 1.032275,1.20432 4.301144,0 1.892504,2.06455 4.129098,-0.51614 1.720458,1.72046 2.924778,-1.8925 9.978654,-0.86023 1.37637,1.20432 1.54841,-0.17205 4.1291,-6.19364 0.51613,-1.720461 1.54842,-2.408641 3.09682,-5.849556 2.06455,-3.440915 8.2582,-7.742059 -2.92478,-2.752733 -2.92478,-0.344091 -3.95705,-1.720458 0.51613,-2.064549 -7.39796,-10.322746 -6.70979,-0.516137 -0.516136,1.20432 1.892506,4.645236 0,6.709785 -2.408643,2.580686 0.860233,4.129099 -2.924783,1.548411 -8.258196,0 -1.548412,1.548412 -8.430243,-0.516137 -0.344091,1.720458 -3.096824,-1.720458 -6.193648,0.516137 -3.440915,-3.268869 -4.645236,-0.172046 -1.20432,-1.20432 -3.957053,0.516137 -3.096823,-1.720458 -5.849556,4.301144 z"
     id="gafor_05"
     inkscape:connector-curvature="0" />
  <path
     style="fill:none;fill-rule:evenodd;stroke:#000000;stroke-width:1px;stroke-linecap:butt;stroke-linejoin:miter;stroke-opacity:1"
     d="m 104.08769,108.04474 1.8925,0.17205 0.68818,2.92477 1.03228,0.86023 -0.17205,2.2366 1.72046,-0.17205 1.37637,0.86023 3.785,-0.17205 0.86023,2.58069 2.40864,2.2366 2.2366,-0.3441 0.68818,1.37637 1.8925,-2.40864 3.61297,1.8925 2.06455,1.72046 1.72045,0.17205 1.37637,2.23659 2.58069,-0.17204 1.72045,1.72045 3.09683,2.06455 2.92477,1.37637 1.03228,-1.03228 6.88183,2.2366 2.23659,-0.86023 2.2366,0 1.54841,-1.54841 -0.68818,-3.09682 3.26887,-6.70979 0,-2.40864 2.06455,-2.58069 -1.03228,-2.58068 0.68819,-1.20432 -1.37637,-1.37637 1.20432,-1.20432 -1.03227,-1.8925 0,-1.54842 -1.03228,-1.03227 0,-3.096824 -0.51614,-1.720458 -10.32274,-7.742059 0.68818,-3.440915 -7.05388,0.172046 -2.40864,-1.204321 -5.33342,0.688183 -5.67751,-3.785007 -3.95705,-1.548412 -7.39797,7.570014 -7.39796,12.043203 0,1.54841 -3.95706,5.16138 z"
     id="gafor_06"
     inkscape:connector-curvature="0" />
  <path
     style="fill:none;fill-rule:evenodd;stroke:#000000;stroke-width:1px;stroke-linecap:butt;stroke-linejoin:miter;stroke-opacity:1"
     d="m 153.98096,129.55046 0.86023,1.54841 2.40864,-1.8925 1.54841,1.54841 2.2366,0.68818 4.47319,4.81729 0.17204,1.20432 2.40864,1.37636 c 0,0 1.37637,1.20432 2.06455,1.20432 0.68818,0 5.33342,0.17205 5.33342,0.17205 l 2.06455,-3.95705 8.2582,0.17204 7.74206,-13.07548 0,-10.66683 2.92477,-2.75274 -2.75273,-1.37636 -5.50546,0.51613 -7.74206,-4.81728 -5.84956,-0.34409 -1.37636,-1.54841 -2.75274,0 -3.61296,-1.72046 -1.8925,0.17205 -3.09682,-3.612963 -4.81729,0.516137 0.68819,4.645236 1.20432,0.86023 0,1.72046 1.03227,1.20432 -1.72046,1.8925 1.72046,1.54841 -0.86023,0.68819 1.37637,3.09682 -1.8925,1.8925 -0.3441,2.75273 -3.44091,6.70979 0.51614,2.92478 z"
     id="gafor_15"
     inkscape:connector-curvature="0" />
  <path
     style="fill:none;fill-rule:evenodd;stroke:#000000;stroke-width:1px;stroke-linecap:butt;stroke-linejoin:miter;stroke-opacity:1"
     d="m 186.49761,136.0882 3.44091,1.54841 2.58069,0.86023 2.06455,-1.37637 3.78501,-0.34409 1.8925,1.54841 1.03228,3.78501 5.16137,-0.17204 2.06455,3.26887 4.1291,0.68818 8.25819,0.86023 2.06455,1.03227 4.47319,-0.34409 0.86023,-1.37637 -2.06455,-5.16137 -1.03227,-4.30114 -1.20432,-2.06455 0,-2.40864 4.12909,-2.06455 0.51614,-4.1291 -1.54841,-1.03227 0,-1.54842 -4.81728,-5.33342 -2.06455,0 -0.34409,-5.50546 -3.78501,0.51614 -1.72046,1.54841 -0.86023,-0.17205 -1.03227,-1.8925 -3.95705,0.17205 -2.06455,-1.37637 -5.16137,0.68818 -4.81729,-2.06455 -2.40864,2.2366 -0.17204,10.83888 z"
     id="gafor_17"
     inkscape:connector-curvature="0" />
  <path
     style="fill:none;fill-rule:evenodd;stroke:#000000;stroke-width:1px;stroke-linecap:butt;stroke-linejoin:miter;stroke-opacity:1"
     d="m 227.78859,129.55046 3.61296,2.06455 2.92478,-0.51614 0.68819,2.2366 1.8925,0 4.1291,-2.2366 1.20432,0.17205 1.8925,1.03227 2.58069,-0.17204 2.06455,1.20432 9.46251,0.17204 -2.23659,-3.61296 0,-1.8925 2.58069,-2.2366 -0.17205,-3.61296 1.20432,-1.54841 -2.58069,-2.40864 -1.54841,0 -2.75273,-1.54841 0,-2.06455 -5.33342,-3.09682 -0.34409,-2.06455 -2.40864,0.17204 -1.72046,-1.37636 -2.58069,-0.51614 -1.8925,1.37636 -9.97865,-0.34409 -1.03228,1.37637 -5.16137,-0.68818 -2.92478,2.75273 1.03228,5.50546 2.23659,0.34409 4.30114,4.81729 0,2.06455 1.72046,1.03227 z"
     id="gafor_18"
     inkscape:connector-curvature="0" />
  <path
     style="fill:none;fill-rule:evenodd;stroke:#000000;stroke-width:1px;stroke-linecap:butt;stroke-linejoin:miter;stroke-opacity:1"
     d="m 258.58479,133.50751 -0.17205,1.54842 1.8925,0.51613 2.06455,0.86023 -0.17204,2.2366 -1.20432,1.37636 2.92477,4.30115 0,2.40864 -0.86022,0 0,4.1291 -3.61297,5.16137 2.2366,1.20432 0.34409,4.47319 -0.34409,0.86023 -2.75273,0 -1.89251,1.20432 -4.30114,-0.17205 -1.03228,0.68819 -3.44091,0.34409 -3.09682,-2.06455 -1.72046,-0.34409 -3.95705,-3.44092 -1.20433,0 -2.58068,-1.8925 -1.37637,-1.03228 -4.30114,0.34409 -1.03228,1.20432 -2.06455,-1.37636 -1.8925,0 0.68818,-2.06455 0.86023,-1.03228 0,-3.26886 0.86023,-2.92478 1.20432,-0.68819 -3.09682,-9.46251 -1.54841,-1.72046 0.17204,-2.75273 3.95705,-2.2366 3.09683,1.54841 3.09682,-0.34409 0.68819,2.40864 1.54841,-0.17204 4.1291,-2.2366 3.09682,0.86023 2.92478,0 2.06455,1.54841 z"
     id="gafor_19"
     inkscape:connector-curvature="0" />
  <path
     style="fill:none;fill-rule:evenodd;stroke:#000000;stroke-width:1px;stroke-linecap:butt;stroke-linejoin:miter;stroke-opacity:1"
     d="m 186.23954,136.0882 6.0216,2.32262 2.40864,-1.29035 3.78501,-0.43011 1.63444,1.46239 1.46238,4.04307 4.64524,-0.51613 2.58069,3.785 11.95718,1.20432 2.49466,1.29035 3.69898,-0.34409 -0.43011,2.15057 0.25807,3.09682 -1.20432,1.1183 -0.51614,2.06455 -0.86023,1.72046 -3.18284,0.17204 -1.20432,0.94625 -4.55922,-0.17204 -1.29034,1.63443 -4.38717,-0.51613 -1.97852,-1.89251 -1.72046,-0.17204 -1.20432,-0.94626 -5.2474,0.25807 -0.34409,-1.11829 -1.8925,0.086 -1.97853,-1.80648 0.25807,-1.37637 -5.2474,-3.69898 -4.21512,-3.26887 0.34409,-4.73126 -1.37636,-1.72046 1.1183,-1.63443 z"
     id="gafor_16"
     inkscape:connector-curvature="0" />
  <path
     style="fill:none;fill-rule:evenodd;stroke:#000000;stroke-width:1px;stroke-linecap:butt;stroke-linejoin:miter;stroke-opacity:1"
     d="m 149.76584,130.32467 1.97852,-0.77421 2.06455,0.086 1.1183,1.54842 2.49467,-2.06455 1.03227,1.37636 2.58069,0.94625 4.55921,4.90331 0.086,1.03227 3.87103,2.58069 5.76353,0.17205 2.2366,-3.87103 8.51627,0.25806 0.25806,1.20432 -1.37636,1.46239 1.46239,2.06455 -0.43012,4.47319 2.92478,2.49467 -3.52694,1.97852 -3.785,1.37637 -2.92478,1.8925 -1.29035,1.97853 0.43012,4.55921 -5.41944,6.0216 -3.0108,-3.18284 -2.49467,-1.20432 -4.30114,0.25806 -1.29035,-1.11829 -4.21512,-0.086 -3.785,-2.83875 -3.3549,-1.63444 -4.21512,-2.15057 -4.73126,-1.03227 -3.09682,-1.72046 1.46239,-3.61296 4.47319,-4.47319 0.17205,-1.54841 1.80648,-1.46239 0,-1.37637 z"
     id="gafor_20"
     inkscape:connector-curvature="0" />
  <path
     style="fill:none;fill-rule:evenodd;stroke:#000000;stroke-width:1px;stroke-linecap:butt;stroke-linejoin:miter;stroke-opacity:1"
     d="m 114.92657,116.9051 c 0,0.51613 -0.086,6.27967 -0.086,6.27967 l -3.61296,2.58068 0.25807,2.49467 0.60216,0.86023 -2.40864,2.49466 -0.25807,3.61296 9.37649,6.19365 2.75273,0.68818 0.51614,1.37637 c 0,0 4.04308,3.0108 4.64524,3.09682 0.60216,0.086 3.95705,0.25807 3.95705,0.25807 l 2.23659,2.66671 2.06455,-0.17205 1.37637,2.2366 1.97853,-0.34409 1.03227,-3.44092 4.38717,-4.38717 0.086,-1.80648 1.97853,-1.29034 0.086,-1.97853 3.78501,-8.08615 -6.96786,-2.23659 -1.03227,1.1183 -7.57002,-5.07535 -2.75273,-0.086 -1.46239,-1.72045 -1.46239,-0.17205 -5.93558,-3.95705 -1.63443,2.40864 -0.94625,-1.37637 -2.06455,0.34409 z"
     id="gafor_08"
     inkscape:connector-curvature="0" />
  <path
     style="fill:none;fill-rule:evenodd;stroke:#000000;stroke-width:1px;stroke-linecap:butt;stroke-linejoin:miter;stroke-opacity:1"
     d="m 46.53838,105.03394 -2.150573,2.75273 -0.774205,4.21512 -0.774206,0.94625 -0.258069,5.76354 -8.860357,-0.34409 -0.516137,2.49466 -1.806481,1.20432 2.408641,4.9033 4.129098,1.54842 1.806481,-1.63444 1.118297,2.75273 c 0,0 1.376366,0.60216 1.376366,0.94626 0,0.34409 -1.548412,5.67751 -1.548412,5.67751 l 1.290344,2.58068 12.043203,0.68819 3.698984,-2.06455 -0.344091,-3.09683 4.989327,-3.44091 5.07535,-0.25807 0.688183,1.46239 3.87103,-0.34409 4.559213,2.6667 2.924778,-2.06454 5.333418,0 1.118298,-0.60216 6.709785,0.86022 2.838755,5.50547 4.129098,0.17204 1.548412,-1.03227 1.54841,-0.17205 2.58069,-1.63443 4.04307,-0.34409 0.3441,-3.35489 2.49466,-2.75274 -0.77421,-1.29034 -0.086,-2.06455 3.44092,-2.58069 0.34409,-6.36569 -0.86023,-2.15057 -3.18285,0.34409 -1.8925,-0.94625 -1.63444,0.086 0,-2.06455 -0.94625,-1.03227 -0.60216,-2.92478 -3.26887,-0.17205 -1.46239,-1.03227 -9.978652,0.68818 -2.838755,1.97853 -1.80648,-1.46239 -3.957053,0.34409 -1.978526,-2.15057 -4.129098,0 -1.290344,-1.1183 -8.860357,0.34409 -2.236595,1.20432 -11.699112,-0.43011 -1.462389,-0.94625 z"
     id="gafor_07"
     inkscape:connector-curvature="0"
     inkscape:label="#gafor_07" />
  <path
     style="fill:none;fill-rule:evenodd;stroke:#000000;stroke-width:1px;stroke-linecap:butt;stroke-linejoin:miter;stroke-opacity:1"
     d="m 58.065446,137.80866 1.634435,1.46239 -0.172046,1.97852 3.526938,3.61296 3.87103,-0.17204 1.118297,1.54841 6.021602,-0.60216 5.333419,2.32262 3.440915,2.40864 4.903304,3.18284 1.978527,1.72046 -1.290344,1.54841 3.957053,2.15058 2.064549,-0.94626 1.032275,-2.83875 -1.892504,-1.20432 -0.08602,-1.8925 -1.80648,-0.68819 -1.290343,-1.29034 -0.688183,-2.66671 -1.892504,-2.58069 2.924778,-3.0108 5.247396,-3.69898 -3.354892,-5.59149 -6.623762,-0.86023 -0.946252,0.77421 -5.505465,0 -2.752732,2.06455 -4.559213,-2.75273 -4.043075,0.25806 -0.774206,-1.37636 -5.247396,0.25807 -4.817281,3.26887 z"
     id="gafor_09"
     inkscape:connector-curvature="0" />
  <path
     style="fill:none;fill-rule:evenodd;stroke:#000000;stroke-width:1px;stroke-linecap:butt;stroke-linejoin:miter;stroke-opacity:1"
     d="m 39.914618,138.49684 -3.612962,1.97853 -0.258068,2.66671 -5.419442,0.86022 -0.430114,2.32262 3.096824,2.75274 1.20432,0.34409 -1.290343,1.80648 -2.150572,1.80648 -2.322618,-0.68819 -2.838755,1.72046 -3.785007,0.25807 0.258068,3.78501 6.107625,6.27967 3.957053,0.25807 1.720457,-1.03228 1.118298,-1.20432 3.096824,0.17205 1.118297,-1.1183 5.333419,0.51614 1.80648,1.63443 6.451717,-0.17204 5.419441,3.0108 3.354893,-2.15057 4.387167,0.60216 0.860228,0.94625 3.354893,-1.89251 3.612961,-0.51613 5.333419,-3.0108 4.129098,-0.68819 5.161373,-2.75273 1.290343,-1.97853 -10.1507,-6.96785 -5.505464,-2.32262 -6.107625,0.51614 -1.290343,-1.63443 -3.526938,0.34409 -3.698984,-3.61296 0.08602,-2.15058 -1.892503,-1.80648 -4.043075,2.2366 z"
     id="gafor_32"
     inkscape:connector-curvature="0" />
  <path
     style="fill:none;fill-rule:evenodd;stroke:#000000;stroke-width:1px;stroke-linecap:butt;stroke-linejoin:miter;stroke-opacity:1"
     d="m 28.215506,164.38973 0.344091,3.18284 4.903304,3.61297 0,1.80648 -1.376366,0.51613 0.258069,4.47319 1.892503,1.89251 1.290344,-1.29035 9.720585,0 3.698984,2.06455 3.957053,-0.25807 0.258068,-1.8925 2.236595,-2.83875 4.129099,-0.086 8.774334,-1.72045 4.129098,1.11829 4.731259,0 13.419569,-7.22592 1.806481,-3.44091 0.08602,-5.59149 -3.698984,-1.80648 -4.731259,2.83875 -4.387167,0.68819 -5.419441,3.0108 -3.698984,0.51613 -3.526938,1.80648 -0.774206,-0.86022 -4.215122,-0.77421 -3.354892,2.40864 -5.505465,-3.09682 -6.537739,0.34409 -2.064549,-1.72046 -5.161373,-0.60216 -1.118297,1.20432 -2.838755,-0.34409 -2.838755,2.32262 z"
     id="gafor_33"
     inkscape:connector-curvature="0" />
  <path
     style="fill:none;fill-rule:evenodd;stroke:#000000;stroke-width:1px;stroke-linecap:butt;stroke-linejoin:miter;stroke-opacity:1"
     d="m 92.646645,158.36813 1.634434,-0.43012 1.204321,-2.66671 -1.806481,-1.29034 -0.344091,-2.06455 -1.720458,-0.51614 -1.032275,-1.29034 -0.774206,-2.49466 -1.978526,-2.83876 3.440915,-3.52694 4.559213,-3.0108 3.87103,0.086 1.462389,-1.29034 1.37637,0 2.75273,-1.37636 4.1291,-0.51614 9.89263,6.27967 2.49466,0.7742 0.34409,1.46239 4.64524,2.92478 4.04307,0.34409 c 0,0 1.46239,2.2366 1.89251,2.49467 0.43011,0.25807 1.97852,0 1.97852,0 l 1.63444,2.15057 -3.44092,0.94625 -1.80648,4.1291 0.68819,4.21512 1.72045,3.26887 2.83876,4.38717 3.61296,1.80648 2.58069,0.7742 0.43011,1.20432 -2.83875,3.69899 -1.03228,-1.29035 -2.15057,-2.83875 -3.61296,1.63443 -3.09683,3.18285 -0.25806,1.97853 -3.18285,-0.086 -5.2474,3.78501 -1.46239,-1.63443 -3.87103,-1.72046 -1.11829,-2.75273 -0.086,-5.2474 -2.23659,-2.92478 -3.44092,0.51614 -0.086,3.18285 -3.95705,2.32261 -2.06455,1.97853 -1.29034,-1.29034 -2.924782,0 -3.26887,-4.21512 -1.80648,-2.06455 -1.548412,-4.30115 z"
     id="gafor_10"
     inkscape:connector-curvature="0" />
  <path
     style="fill:none;fill-rule:evenodd;stroke:#000000;stroke-width:1px;stroke-linecap:butt;stroke-linejoin:miter;stroke-opacity:1"
     d="m 142.45389,170.6694 4.1291,0 1.1183,1.63443 2.92478,-0.34409 1.72046,2.06455 2.15057,-0.34409 1.72045,3.35489 1.1183,-1.54841 1.97853,1.46239 5.24739,-0.34409 1.20432,1.29034 6.79581,-0.34409 1.37637,-3.61296 1.1183,-1.20432 -0.086,-2.06455 -0.94625,-1.03228 -1.29034,-3.35489 -3.35489,-3.61296 -2.32262,-1.03227 -4.47319,0.25806 -1.37637,-1.11829 -3.785,0 -4.98933,-3.44092 -6.45172,-3.18284 -4.73126,-1.1183 -3.35489,-1.72046 -4.98933,1.37637 -1.72045,3.87103 0.86022,4.55921 4.30115,7.48399 z"
     id="gafor_21"
     inkscape:connector-curvature="0" />
  <path
     style="fill:none;fill-rule:evenodd;stroke:#000000;stroke-width:1px;stroke-linecap:butt;stroke-linejoin:miter;stroke-opacity:1"
     d="m 173.07804,176.60498 4.64524,6.79581 2.15057,3.61296 2.49466,1.80648 4.90331,3.87103 11.09695,0 5.59148,-5.67751 3.69899,-2.06455 6.27967,-3.61296 1.54841,1.03227 7.74206,-0.17205 -2.23659,-2.40864 -0.17205,-5.24739 5.07535,-18.75299 -1.54841,1.8925 -3.52694,-0.086 -1.29034,1.29034 -4.1291,0.086 -1.63444,1.54841 -4.21512,-0.51614 -1.97852,-1.97853 -1.97853,-0.43011 -1.1183,-0.86023 -5.07535,0.17205 -0.34409,-1.1183 -1.72046,0.086 -2.40864,-1.63443 0.60216,-1.54841 -6.70978,-4.64524 -3.26887,2.2366 -3.78501,1.11829 -3.0108,1.89251 -1.46239,2.23659 0.68818,4.64524 -5.50546,5.50546 1.72046,4.30115 0.94625,0.86022 0.086,1.80648 -1.20432,1.29035 z"
     id="gafor_22"
     inkscape:connector-curvature="0" />
  <path
     style="fill:none;fill-rule:evenodd;stroke:#000000;stroke-width:1px;stroke-linecap:butt;stroke-linejoin:miter;stroke-opacity:1"
     d="m 223.22938,182.19646 11.69911,3.52694 2.06455,-1.54841 2.66671,-0.7742 6.10763,-6.27968 12.81741,5.2474 2.92477,-3.87103 11.09696,0.086 -1.1183,-6.53774 -6.27967,-2.32261 -1.29035,-2.40864 1.20432,-1.20432 -1.20432,-4.55922 -1.72045,-0.086 -0.51614,1.1183 -2.83876,-0.086 -1.54841,1.29035 -4.73126,-0.086 -0.94625,0.68818 -3.18284,0.25807 -3.26887,-2.15058 -1.54842,-0.34409 -4.12909,-3.52693 -1.29035,0.086 -3.87103,-2.92478 -4.47319,0.51614 -0.94625,1.29034 -1.63443,-1.54841 -1.54842,0.086 -4.81728,18.49492 0.51614,5.41944 z"
     id="gafor_23"
     inkscape:connector-curvature="0" />
  <path
     style="fill:none;fill-rule:evenodd;stroke:#000000;stroke-width:1px;stroke-linecap:butt;stroke-linejoin:miter;stroke-opacity:1"
     d="m 235.44463,185.55136 -1.63443,6.70978 1.80648,2.92478 1.29034,1.29034 0,1.54842 10.58081,5.93557 c 0,0 4.21512,-1.72045 4.21512,-2.06455 0,-0.34409 -0.17204,-1.80648 -0.17204,-1.80648 l 4.81728,-0.25806 0.17205,-2.06455 -4.98933,-2.06455 2.40864,-3.44092 2.58069,1.97853 2.92477,-1.63444 2.49467,2.75274 0.086,2.23659 c 0,0 2.06455,0.60216 2.06455,1.03228 0,0.43011 -1.20432,2.23659 -1.20432,2.23659 l 5.41944,2.49466 0.60216,-4.38716 2.58069,-1.72046 0.7742,-7.31195 1.46239,-5.84955 0.94625,-3.69899 -2.06454,-1.80648 -11.09696,-0.17204 -2.75273,3.95705 -12.81741,-5.33342 -6.0216,6.3657 z"
     id="gafor_26"
     inkscape:connector-curvature="0" />
  <path
     style="fill:none;fill-rule:evenodd;stroke:#000000;stroke-width:1px;stroke-linecap:butt;stroke-linejoin:miter;stroke-opacity:1"
     d="m 190.11057,192.69126 c -0.086,0.51613 -1.37637,2.66671 -1.37637,2.66671 l -3.35489,2.06455 0,3.26886 1.80648,1.63444 1.03228,5.07535 1.80648,1.29034 1.37636,4.21512 1.54842,1.29035 2.58068,0 3.87103,-3.52694 2.83876,-0.43012 4.04307,-2.83875 2.66671,-0.77421 1.46239,-2.32261 4.90331,-3.87103 1.03227,0.51613 1.54841,-3.35489 7.48399,-3.44091 8.77434,-1.03228 -0.51614,-1.03227 1.80648,-6.45172 -12.21525,-3.61296 -7.48399,0.34409 -1.63444,-1.1183 -9.89263,5.76354 -5.76353,5.76353 z"
     id="gafor_25"
     inkscape:connector-curvature="0" />
  <path
     style="fill:none;fill-rule:evenodd;stroke:#000000;stroke-width:1px;stroke-linecap:butt;stroke-linejoin:miter;stroke-opacity:1"
     d="m 140.13128,175.83077 -4.90331,7.74206 2.58069,5.84956 0.25807,3.18284 -1.80648,5.93558 1.03227,1.72046 6.70979,2.92478 3.69898,0.86023 4.1291,1.03227 7.1399,1.72046 6.45171,3.61296 0.17205,0.60216 3.26887,1.20432 7.1399,0 1.03227,1.03228 4.38717,-0.25807 1.20432,1.29034 2.66671,-0.43011 3.61296,3.18284 3.35489,-3.44091 -0.86023,-1.29035 -1.20432,-3.61296 -2.06455,-1.29034 -0.94625,-5.07535 -1.72046,-1.72046 -0.34409,-3.26887 3.61296,-1.80648 1.72046,-3.09682 -2.83875,0 -7.74206,-5.50547 -7.22592,-10.49479 -0.17205,1.1183 -6.36569,0.43011 -1.20432,-1.37636 -5.41945,0.17204 -2.06454,-1.37636 -1.29035,1.63443 -1.54841,-3.26887 -2.15057,0 -1.54841,-1.80648 -2.75274,0.17205 -1.54841,-1.46239 -3.95705,-0.086 0.34409,1.63443 z"
     id="gafor_24"
     inkscape:connector-curvature="0" />
  <path
     style="fill:none;fill-rule:evenodd;stroke:#000000;stroke-width:1px;stroke-linecap:butt;stroke-linejoin:miter;stroke-opacity:1"
     d="m 22.107881,156.30358 -2.580687,-1.20432 -1.634434,-0.94625 -1.462389,-0.086 -2.150572,-1.97852 -0.344092,2.83875 -1.720458,-0.86023 -2.064549,1.37637 -1.8064804,0 -0.5161373,4.47319 3.1828467,1.03227 0,1.80648 1.806481,0.77421 -1.290344,2.06455 3.26887,4.98933 0.60216,0 0.344092,6.88183 -4.043076,4.12909 -2.0645491,2.75274 c 0,0 3.0108011,1.46239 3.0108011,1.80648 0,0.34409 -0.344092,1.54841 -0.344092,1.54841 l -3.2688693,1.46239 -2.4946636,3.09682 -1.6344348,0.68819 0.4301144,2.6667 2.5806865,0.25807 2.5806868,5.16138 4.989327,-2.06455 1.290343,-0.77421 4.301144,0.25807 1.290343,-1.29034 5.419442,0.086 9.634563,-4.73126 -0.688183,-3.87103 -0.688183,-2.75273 -1.032275,-0.86023 -0.774206,-5.16137 -1.720457,-1.80648 -0.516138,-4.64524 1.720458,-0.51614 -0.08602,-1.80648 -5.07535,-3.61296 -0.172046,-2.92478 -6.021602,-6.45171 z"
     id="gafor_31"
     inkscape:connector-curvature="0" />
  <path
     style="fill:none;fill-rule:evenodd;stroke:#000000;stroke-width:1px;stroke-linecap:butt;stroke-linejoin:miter;stroke-opacity:1"
     d="m 37.850068,192.43319 c 0.344092,0.17204 1.290344,-0.86023 1.290344,-0.86023 l 1.634434,0.086 0,3.87103 2.752733,2.58069 -0.860229,1.20432 0,1.72046 3.698984,5.67751 1.892503,0.94625 0.946252,-0.94625 3.957052,-0.17205 0.688184,-0.86023 2.322617,1.89251 3.354893,-0.086 3.096824,-1.80648 2.666709,-0.17204 -0.08602,-1.63444 -1.118297,-1.03227 0.08602,-3.0108 -2.838755,-2.83876 0,-1.54841 -3.182846,-1.8925 -0.516138,-1.80649 -1.80648,-1.97852 -1.032275,-1.1183 0.08602,-1.97853 -2.064549,-1.63443 0,-4.55921 -3.698984,0.25807 -3.87103,-2.15058 -9.720585,-0.086 -1.548412,1.46239 1.032274,5.2474 1.032275,0.51613 z"
     id="gafor_35"
     inkscape:connector-curvature="0" />
  <path
     style="fill:none;fill-rule:evenodd;stroke:#000000;stroke-width:1px;stroke-linecap:butt;stroke-linejoin:miter;stroke-opacity:1"
     d="m 65.721482,204.30435 2.150572,-3.18285 2.752733,-0.25807 1.376366,3.0108 3.612961,1.8925 3.010801,-0.34409 4.47319,-1.29034 1.892503,-0.34409 -0.258069,-1.72046 1.290344,-3.87103 0.688183,-1.46239 -1.118298,-3.44091 0.08602,-2.32262 3.785007,-4.81728 0.258069,-1.46239 2.580686,-1.97853 0.172046,-1.46239 1.720458,-2.58068 2.150572,-4.64524 0.60216,-1.63443 -2.924778,-3.78501 -1.634435,-4.30114 -1.634435,3.52693 -13.505592,7.05388 -4.817282,0.086 -3.957052,-1.11829 -8.688312,1.8925 -4.301144,0.086 -2.236595,2.75273 -0.08602,6.19365 1.806481,1.63444 0,2.06455 2.838755,3.26886 0.430115,1.72046 3.268869,1.72046 0.08602,1.72046 2.580686,2.66671 0.172046,3.0108 z"
     id="gafor_36"
     inkscape:connector-curvature="0" />
  <path
     style="fill:none;fill-rule:evenodd;stroke:#000000;stroke-width:1px;stroke-linecap:butt;stroke-linejoin:miter;stroke-opacity:1"
     d="m 85.248677,203.70219 4.301144,0.25806 -1.032275,3.01081 0.08602,2.6667 -0.946252,1.20432 0.172046,3.18285 1.806481,0.94625 2.064549,1.03228 1.720458,0 1.892503,0.86023 0,3.87103 0.774206,1.03227 0.344091,3.26887 1.806481,1.46239 1.634435,-0.34409 1.290346,1.20432 1.37637,-0.086 1.54841,1.03227 6.79581,-0.086 3.26887,-3.52694 -0.17205,-2.32262 2.92478,0.086 -0.17205,-4.47319 1.03228,-0.86022 -0.086,-2.2366 3.95706,-3.87103 3.0108,0.25807 -0.34409,-3.95705 1.37636,-1.46239 -1.1183,-1.29035 1.63444,-0.94625 0,-1.8925 3.61296,-3.95705 2.83876,0.43011 1.03227,1.20432 2.58069,-0.60216 1.80648,-5.93558 -0.086,-3.26887 -2.58068,-6.27967 4.55921,-7.39797 -3.0108,-4.12909 -3.78501,1.63443 -3.09682,3.61296 0.086,1.54841 -3.26887,0 -5.33342,3.87103 -1.20432,-1.63443 -3.95705,-1.72046 -1.29034,-2.75273 0,-5.33342 -2.40864,-3.0108 -3.61296,0.77421 0.17204,2.83875 -4.04307,2.66671 -1.54842,1.80648 -1.72045,-1.20432 -2.666716,-0.17205 -2.322618,-2.40864 -4.387167,8.86036 -0.344092,1.80648 -2.322618,1.63444 -0.344091,1.63443 -3.87103,4.73126 0,2.06455 1.032275,3.69898 -0.688183,1.37637 -1.118298,3.95705 z"
     id="gafor_43"
     inkscape:connector-curvature="0" />
  <path
     style="fill:none;fill-rule:evenodd;stroke:#000000;stroke-width:1px;stroke-linecap:butt;stroke-linejoin:miter;stroke-opacity:1"
     d="m 125.85148,206.0248 3.87103,-0.25807 1.29034,1.03228 2.40864,-0.34409 1.72046,2.66671 1.1183,0.60216 0.43011,4.30114 1.1183,1.46239 -0.60216,1.8925 1.1183,1.03228 0.17204,2.32262 3.18285,2.32261 0.68818,5.33342 4.21512,-0.17204 0.94625,0.86023 1.80648,0.17204 5.2474,3.09683 4.38717,-0.17205 3.0108,1.54841 3.18284,0.43012 0.17205,-1.46239 -1.1183,-1.89251 1.1183,-0.60216 0.086,-3.26887 2.2366,-2.66671 -0.25807,-2.32261 -0.17205,-3.26887 1.46239,-0.86023 -3.35489,-4.55921 0.086,-2.40865 -6.62376,-4.21512 -14.36582,-3.44091 -7.1399,-2.92478 -0.94625,-1.54841 -2.58069,0.60216 -0.94625,-1.1183 -2.83875,-0.51614 -3.69899,3.95706 -0.086,2.15057 -1.54841,0.7742 z"
     id="gafor_27"
     inkscape:connector-curvature="0" />
  <path
     style="fill:none;fill-rule:evenodd;stroke:#000000;stroke-width:1px;stroke-linecap:butt;stroke-linejoin:miter;stroke-opacity:1"
     d="m 111.57168,227.96064 2.15057,2.32262 1.37637,0 1.20432,0.94625 -2.58069,2.83875 0.086,2.2366 1.29035,0.68818 -0.34409,3.69899 1.80648,1.29034 1.54841,-2.40864 2.58068,0.086 15.22605,-14.96798 1.80649,-1.1183 1.29034,0.25807 0.51614,-2.40864 -1.03228,-0.94625 -0.25807,-2.40864 -1.29034,-0.94625 0.86023,-1.63444 -0.94625,-1.54841 -0.43012,-4.04308 -1.1183,-1.03227 -1.8925,-2.58069 -2.66671,0.34409 -1.37636,-1.11829 -4.04308,0.34409 -1.37637,1.46239 0.68819,3.785 -2.75274,-0.17204 -4.12909,3.69898 -0.086,2.49467 -0.86023,0.94625 0.25807,4.30114 -3.09682,0.086 0.086,1.97853 z"
     id="gafor_47"
     inkscape:connector-curvature="0" />
  <path
     style="fill:none;fill-rule:evenodd;stroke:#000000;stroke-width:1px;stroke-linecap:butt;stroke-linejoin:miter;stroke-opacity:1"
     d="m 165.59405,233.03599 1.8925,0 3.35489,3.35489 0.25807,1.29034 2.66671,2.66671 0,0.94626 3.0108,3.26886 0.086,1.37637 5.33342,3.87103 2.92477,1.03228 1.54842,2.06454 3.26886,-0.25806 0.86023,-1.03228 1.20432,0 0.86023,-3.87103 1.20432,-1.03227 0,-1.37637 2.15058,-2.75273 -2.75274,-1.80648 -0.86023,-1.29035 0,-1.80648 -0.68818,-1.29034 -0.17204,-1.63443 -2.83876,-1.29035 1.1183,-1.80648 -0.086,-2.75273 2.58069,0 0.34409,-1.37637 -2.75273,-2.06455 -2.32262,-1.46238 0.43012,-1.63444 2.06455,-1.03227 0.60216,-0.68819 -0.086,-5.50546 -1.72045,1.72046 -3.52694,-2.92478 -2.83876,0.17204 -1.29034,-1.20432 -4.38717,0.51614 -1.03227,-1.1183 -6.96786,-0.17204 -3.35489,-1.1183 -0.51614,2.2366 3.61297,4.38716 -1.37637,0.94625 0.34409,5.41945 -2.06455,2.58068 -0.086,3.52694 -1.03228,0.60216 z"
     id="gafor_58"
     inkscape:connector-curvature="0" />
  <path
     style="fill:none;fill-rule:evenodd;stroke:#000000;stroke-width:1px;stroke-linecap:butt;stroke-linejoin:miter;stroke-opacity:1"
     d="m 192.77728,227.87462 0.86023,3.61296 1.46239,2.40864 2.23659,-1.63444 c 0,0 -0.086,-2.49466 0.34409,-2.58068 0.43012,-0.086 5.59149,-4.38717 5.59149,-4.38717 l 2.92478,-0.86023 0.94625,0.68818 3.09683,-2.66671 4.38716,2.32262 1.54841,-2.40864 0.086,-2.58069 5.41944,0.25807 0.94625,-3.61296 1.54841,0.43012 2.58069,-3.44092 2.15057,2.40864 2.32262,-2.92478 -0.086,-3.09682 3.95705,-1.29034 1.20432,1.29034 1.37636,-1.29034 2.49467,0.086 1.54841,-2.66671 1.8925,-0.25807 0.77421,-1.29034 2.83875,-0.25807 -10.23672,-5.93558 -0.086,-1.72046 -2.75273,-3.61296 -8.68831,1.20432 -7.484,3.61296 -1.29034,3.61296 -1.29034,-0.60216 -5.16137,3.87103 -1.1183,2.40865 -2.83876,0.43011 -3.87103,3.09682 -3.09682,0.17205 -3.61296,3.52694 -2.75273,-0.17205 -0.86023,-0.43011 -1.37637,1.37636 0.25807,5.93558 -2.66671,1.46239 -0.25807,1.54841 z"
     id="gafor_28"
     inkscape:connector-curvature="0" />
  <path
     style="fill:none;fill-rule:evenodd;stroke:#000000;stroke-width:1px;stroke-linecap:butt;stroke-linejoin:miter;stroke-opacity:1"
     d="m 10.705616,200.98735 -2.9805408,0.24331 c 0,0 -2.007303,2.98054 -1.7639936,2.98054 0.2433095,0 2.0681304,0.85159 2.0681304,0.85159 l 2.676404,-0.36497 3.527987,-1.70316 4.197088,0.0608 3.649642,2.4331 1.946476,2.18978 c 0,0 0.486619,1.21655 0.729928,1.39903 0.243309,0.18249 5.474463,2.49393 5.474463,2.49393 l 1.15572,0.97323 2.676404,-1.45985 0.547446,2.43309 4.562052,-0.24331 3.284678,-1.21655 0.364964,-1.70316 3.041368,-3.83213 -3.102195,-5.29198 -0.182482,-1.88565 0.851583,-1.45985 -2.433095,-2.31144 -0.182482,-3.95378 -1.459857,-0.12165 -1.034065,0.97323 -1.15572,-0.0608 -9.184932,4.80536 -5.596117,-0.0608 -1.338202,1.58151 -4.136261,-0.48662 z"
     id="gafor_34"
     inkscape:connector-curvature="0" />
  <path
     style="fill:none;fill-rule:evenodd;stroke:#000000;stroke-width:1px;stroke-linecap:butt;stroke-linejoin:miter;stroke-opacity:1"
     d="m 8.086151,204.99253 -0.2580687,2.32262 2.1505721,0.51613 c 0,0 1.3763666,3.52694 1.7204576,3.61296 0.344092,0.086 2.580687,1.20433 2.580687,1.20433 l -2.66671,2.40864 1.290343,2.92477 2.66671,0 1.80648,4.98933 1.118298,1.72046 -0.172046,1.97853 -3.26887,1.11829 -3.871029,1.89251 -0.688183,2.66671 -1.4623893,2.58068 -0.1720458,6.45172 3.0968241,2.58068 -0.258069,2.40865 1.892503,0.86022 0.172046,1.63444 1.634435,0 2.150572,2.06455 0.860229,-1.29035 1.80648,1.63444 -0.516137,3.87103 1.548412,1.29034 1.634435,-1.11829 0.516137,-2.49467 2.580687,-0.17204 0.258068,-2.40864 1.634435,1.29034 2.752732,-2.06455 1.978527,-1.63444 2.40864,-0.7742 1.806481,-0.25807 1.720457,-1.97853 1.548412,-3.09682 -1.032274,-1.37637 -0.258069,-1.8925 1.892503,-2.49466 5.849557,-1.37637 -2.924778,-3.52694 -0.774206,0.086 0.08602,-2.92478 -1.376366,-1.54841 2.66671,-1.97853 2.322618,-2.40864 -0.946252,-2.40864 -0.774206,-3.69899 -1.462389,-0.51613 -0.946252,-3.69899 -2.838755,1.20432 -4.645236,0.17205 -0.860228,-2.15057 -2.580687,1.20432 -1.20432,-0.94626 -5.677511,-2.32261 -0.774206,-1.63444 -1.80648,-2.23659 -3.698984,-2.32262 -4.129098,0 -3.354893,1.80648 z"
     id="gafor_37"
     inkscape:connector-curvature="0" />
  <path
     style="fill:none;fill-rule:evenodd;stroke:#000000;stroke-width:1px;stroke-linecap:butt;stroke-linejoin:miter;stroke-opacity:1"
     d="m 46.796448,222.36915 4.387167,-0.86023 3.698984,3.26887 0.946252,2.32262 -3.440915,1.29034 -3.010801,1.03228 -0.516138,3.44091 -2.666709,1.29035 -2.322618,-3.18285 -1.032274,0 0.344091,-2.58069 -1.376366,-1.8925 z"
     id="gafor_38"
     inkscape:connector-curvature="0" />
  <path
     style="fill:none;fill-rule:evenodd;stroke:#000000;stroke-width:1px;stroke-linecap:butt;stroke-linejoin:miter;stroke-opacity:1"
     d="m 55.570782,227.96064 3.182847,0.60216 1.290343,0.7742 5.419442,-2.32261 1.032274,-1.63444 2.580687,-0.34409 4.559213,0.43011 -0.172046,-3.69898 2.666709,-3.35489 1.548412,0.43011 2.494664,-1.20432 3.612961,-1.03227 3.957052,-2.58069 0.172046,-3.09682 1.032275,-1.20432 -0.516138,-2.83876 1.290344,-2.92478 -4.387167,-0.25806 -3.87103,0.94625 -2.924778,1.03227 -2.838755,0.17205 -3.612961,-1.89251 -1.462389,-3.09682 -2.66671,0.43011 -2.322618,3.01081 -0.172045,1.29034 -2.66671,-0.086 -3.096823,1.97852 -3.354893,0.34409 -2.494663,-2.06455 -0.602161,0.68819 -4.043075,0.17204 -1.032275,1.03228 -2.064549,-1.03228 -3.096824,3.61296 -0.08602,1.37637 0.602161,3.52694 0.08602,0.51614 1.376366,0.43011 1.032274,3.87103 0.688183,2.40864 4.559213,-0.86023 3.698984,3.26887 1.032275,2.2366 z"
     id="gafor_39"
     inkscape:connector-curvature="0" />
  <path
     style="fill:none;fill-rule:evenodd;stroke:#000000;stroke-width:1px;stroke-linecap:butt;stroke-linejoin:miter;stroke-opacity:1"
     d="m 55.656805,227.87462 -1.80648,1.54841 1.20432,2.15057 -1.892504,0.60216 2.150573,3.18285 1.548411,0.7742 0.344092,2.83876 1.548412,1.54841 0.774206,1.80648 2.752732,2.23659 c 0,0 5.07535,-2.49466 5.419442,-2.6667 0.344091,-0.17205 2.924778,-0.51614 2.924778,-0.51614 l 1.462389,-1.89251 1.634434,-1.20432 2.06455,1.54842 1.032274,1.72045 1.806481,-0.086 1.20432,-2.06455 -0.516137,-2.58068 2.580686,-2.92478 1.290344,1.11829 2.580686,-0.25806 -0.08602,-3.87103 1.290343,-1.63444 1.892504,-0.17204 0,-1.63444 -3.182847,-2.83875 0.08602,-3.87103 -5.505464,-2.83876 -2.494664,0.94625 -1.548412,-0.68818 -2.408641,3.52694 -0.172045,4.04307 -3.785007,-0.7742 -3.698984,0.51613 -0.516138,1.54842 -5.505464,2.40864 -1.290343,-0.94625 z"
     id="gafor_42"
     inkscape:connector-curvature="0" />
  <path
     style="fill:none;fill-rule:evenodd;stroke:#000000;stroke-width:1px;stroke-linecap:butt;stroke-linejoin:miter;stroke-opacity:1"
     d="m 19.441171,255.40194 -2.322617,2.23659 -1.376366,2.40864 0.08602,2.66671 -1.376366,1.80648 0.172046,1.97853 1.720458,0.34409 1.290343,0.94625 1.548412,-0.086 1.634435,-2.23659 2.236595,0.51613 1.118297,-1.37636 2.580687,0.43011 c 0,0 1.376366,-1.8925 1.720457,-1.8925 0.344092,0 1.806481,0 1.806481,0 l 2.40864,-2.32262 3.526939,0.086 1.80648,-1.8925 2.322618,0.34409 4.817281,-4.98933 3.010801,-0.86023 3.957053,-2.06454 4.215121,-2.58069 6.193648,-4.30115 -2.838755,-2.15057 -1.032275,-2.23659 -1.548412,-1.29035 -0.08602,-3.09682 -1.462389,-0.51614 -2.064549,-3.18284 1.376366,-0.68819 -1.462389,-3.09682 -3.87103,1.1183 -0.430114,3.52694 -2.666709,1.37636 -5.333419,1.72046 -2.064549,2.66671 0.258068,1.72046 1.032275,1.11829 -1.720458,3.26887 -1.892503,1.80648 -3.182847,0.86023 -5.419441,4.1291 -1.978527,-1.37636 0.08602,2.15057 -2.666709,0.34409 -0.60216,2.40864 -1.720458,1.29034 z"
     id="gafor_41"
     inkscape:connector-curvature="0" />
  <path
     style="fill:none;fill-rule:evenodd;stroke:#000000;stroke-width:1px;stroke-linecap:butt;stroke-linejoin:miter;stroke-opacity:1"
     d="m 87.915386,213.93891 3.698984,2.06455 1.806481,0.086 1.80648,0.86023 0.258069,3.78501 0.60216,0.94625 0.172046,2.66671 -1.376366,3.44091 0.860228,1.1183 1.548412,0.086 1.548412,2.2366 0.430115,2.40864 2.666713,1.8925 -3.957057,4.98933 0.258069,3.09682 2.236598,1.89251 0.43011,3.0108 -1.978525,1.46239 -5.247396,-0.086 -3.354892,3.87103 -2.66671,-2.92477 -2.322617,0 -1.204321,5.33341 -0.08602,3.0108 1.376366,0.51614 -0.430114,11.09695 -8.860357,-3.69898 -4.989327,-1.54841 -2.236595,0.17204 1.032275,-4.55921 1.80648,-4.30114 0.172046,-3.3549 0.946252,-1.11829 -0.602161,-3.09683 -0.258068,-2.58068 -1.548412,-1.72046 -3.182847,0 -3.354892,2.06455 -1.806481,-2.06455 5.591488,-3.09682 2.838755,-0.51614 1.892503,-2.32262 1.634435,-1.03227 2.150572,2.15057 0.688183,1.46239 2.064549,-0.34409 1.032275,-1.72046 -0.258069,-2.58069 2.064549,-2.83875 1.290344,0.86022 2.924778,-0.34409 0.172045,-3.61296 1.032275,-1.63443 1.892503,-0.25807 -0.258068,-2.15057 -2.752732,-2.40864 -0.172046,-4.1291 -5.161373,-2.66671 3.096824,-1.1183 z"
     id="gafor_45"
     inkscape:connector-curvature="0" />
  <path
     style="fill:none;fill-rule:evenodd;stroke:#000000;stroke-width:1px;stroke-linecap:butt;stroke-linejoin:miter;stroke-opacity:1"
     d="m 85.248677,270.97208 1.20432,5.33342 4.903304,-0.25807 1.032275,-1.1183 3.440915,-0.60216 2.236595,-1.97852 2.666714,-1.20432 3.44091,-2.58069 1.20432,-0.51614 0.94625,-4.1291 3.69899,-6.88183 1.20432,-1.54841 1.80648,-0.086 1.03227,-4.81728 -1.29034,-1.03228 0.086,-4.47319 3.61296,-3.26887 -1.46239,-1.03227 0.3441,-3.78501 -1.80648,-0.86023 0.086,-2.06455 2.75273,-2.83875 -0.86023,-0.94625 -1.72046,-0.086 -2.40864,-2.58068 -0.68818,0.60216 -6.45172,0 -1.63443,-1.1183 -1.46239,0.17205 -1.1183,-1.20432 -1.720455,0.43011 -2.150572,-1.46239 -1.032275,2.75273 0.946252,1.20432 1.462389,-0.086 1.548412,2.49466 0.258068,2.2366 2.924781,1.8925 -4.043078,4.90331 0.344092,3.09682 2.150576,1.80648 0.43011,3.0108 -2.236595,1.80648 -5.591487,0.17205 -2.838755,3.52694 -3.010801,-2.75274 -2.150572,0.086 -1.290344,5.07535 0.344092,3.0108 1.290343,0.43011 z"
     id="gafor_46"
     inkscape:connector-curvature="0" />
  <path
     style="fill:none;fill-rule:evenodd;stroke:#000000;stroke-width:1px;stroke-linecap:butt;stroke-linejoin:miter;stroke-opacity:1"
     d="m 106.15224,265.20855 12.47332,4.47319 1.03227,-1.20432 1.72046,1.37636 1.37636,-1.29034 2.49467,-1.03228 2.06455,-0.086 2.58068,-2.83875 2.15057,0.086 4.55922,-9.54854 -0.086,-5.50547 1.72046,-2.83875 3.35489,0.086 0.68819,-1.29034 3.61296,0.086 2.58069,3.09683 2.92477,0.17204 1.20432,-1.1183 0,-3.61296 -1.29034,-1.29034 0,-3.26887 2.32262,-2.06455 2.83875,-1.8925 1.54842,-0.77421 0.086,-2.75273 -3.09683,0.086 -5.24739,-3.0108 -2.15057,0 -1.03228,-1.1183 -4.1291,0.17205 -0.68818,-5.33342 -2.15057,-1.54841 -0.43012,2.49466 -1.54841,-0.34409 -1.8925,1.29034 -15.14003,14.79594 -2.58069,0.086 -4.64523,5.2474 0.25807,4.73126 1.03227,0.94625 -1.29034,5.2474 -2.06455,-0.086 z"
     id="gafor_54"
     inkscape:connector-curvature="0" />
  <path
     style="fill:none;fill-rule:evenodd;stroke:#000000;stroke-width:1px;stroke-linecap:butt;stroke-linejoin:miter;stroke-opacity:1"
     d="m 151.1422,248.95022 1.20433,1.89251 1.37636,-0.086 0.77421,2.2366 2.40864,2.75273 0.60216,1.8925 1.97852,1.89251 3.26887,1.63443 5.50547,6.96785 1.1183,0.77421 7.39796,-0.51614 1.29035,-0.60216 3.0108,-1.29034 3.35489,0.086 1.37637,-0.86023 5.07535,0.25807 0.086,-4.04307 0.77421,-0.86023 -0.086,-4.04308 -2.83875,-0.60216 -2.92478,-0.43011 -1.54841,-0.68818 -0.94625,-5.2474 -6.27967,-3.95705 -0.17205,-1.54842 -3.09682,-3.26886 0,-1.37637 -2.32262,-1.97853 -0.34409,-1.63443 -3.52694,-3.44092 -2.15057,0.25807 -0.25807,1.03228 -3.26887,-0.51614 -3.09683,-1.54841 -0.7742,0.086 -0.086,2.75273 -4.21513,2.92478 -2.15057,1.8925 0,2.92478 1.03228,1.37637 0.17204,3.785 z"
     id="gafor_57"
     inkscape:connector-curvature="0" />
  <path
     style="fill:none;fill-rule:evenodd;stroke:#000000;stroke-width:1px;stroke-linecap:butt;stroke-linejoin:miter;stroke-opacity:1"
     d="m 196.2182,242.49851 2.32261,0.86022 1.03228,1.54842 1.8925,0.25806 1.80648,3.52694 -1.97852,3.18285 -3.01081,3.44092 2.15058,3.26886 1.97852,0.51614 1.29035,3.87103 2.92477,4.04308 0.68819,3.18284 2.83875,3.52694 2.06455,1.63444 0,2.40864 -2.06455,0.43011 -1.1183,2.06455 -3.0108,1.80648 -2.06455,-1.63443 -1.03227,1.46239 -4.21512,-4.21513 -2.2366,-0.086 -6.70978,-7.22592 -7.05388,0 -0.17204,-3.87103 2.15057,0 1.20432,-0.77421 4.98933,0.25807 0.34409,-4.30114 0.68818,-0.60216 -0.086,-4.30115 -5.50547,-1.03227 -2.06455,-0.51614 -0.7742,-5.24739 1.8925,0.68818 1.37637,2.23659 3.26887,-0.086 0.51614,-1.20432 1.63443,0 0.68818,-3.44091 1.29035,-1.29035 -0.086,-1.72046 z"
     id="gafor_64"
     inkscape:connector-curvature="0" />
  <path
     style="fill:none;fill-rule:evenodd;stroke:#000000;stroke-width:1px;stroke-linecap:butt;stroke-linejoin:miter;stroke-opacity:1"
     d="m 176.691,268.47742 4.04308,4.47319 2.23659,3.52693 2.15057,8.86036 2.83876,5.76353 2.06455,3.26887 2.32262,2.58069 1.54841,0.77421 2.75273,0.7742 0.77421,1.1183 c 0,0 7.74206,-0.34409 8.25819,-0.086 0.51614,0.25807 2.15057,0.86023 2.15057,0.86023 l -4.04307,5.59148 -0.086,1.89251 3.09682,-0.94626 3.78501,-1.80648 3.61296,0.086 1.29034,1.11829 2.49466,-0.51613 1.46239,1.46239 2.06455,-0.51614 1.29035,1.1183 2.66671,0 2.75273,1.54841 0,2.06455 3.09682,1.11829 2.58069,-2.23659 2.66671,-0.43011 -0.086,-1.80648 -1.11829,-2.15058 c 0,0 -0.25807,-2.83875 -0.60216,-2.92478 -0.34409,-0.086 -3.44092,1.72046 -3.44092,1.72046 l -3.09682,-0.25807 -3.69899,-2.15057 -3.52693,-3.785 -2.83876,0.7742 -0.25807,-1.80648 -5.76353,-3.35489 -1.72046,0.17204 -0.086,-2.32261 -1.97853,1.20432 -1.1183,-1.20432 -6.10762,-0.17205 -2.40864,-1.80648 -3.52694,-0.086 -3.87103,-2.75274 0.51614,-5.93557 1.1183,-0.77421 3.26887,1.1183 0.94625,1.11829 5.50546,-0.7742 -3.78501,-4.1291 -2.40864,-0.43011 -6.53774,-6.96786 -7.39796,-0.25807 0,-3.61296 z"
     id="gafor_75"
     inkscape:connector-curvature="0" />
  <path
     style="fill:none;fill-rule:evenodd;stroke:#000000;stroke-width:1px;stroke-linecap:butt;stroke-linejoin:miter;stroke-opacity:1"
     d="m 212.21845,274.84311 4.98933,0.25807 3.87103,5.16137 2.32262,4.1291 4.55921,2.06455 1.63443,0.086 1.89251,4.81728 1.46239,1.54841 1.29034,-1.37636 1.97853,0.94625 2.32261,1.37637 0.25807,1.97852 2.40864,0.17205 2.06455,2.83875 1.29035,2.15058 -1.29035,1.37636 0.43012,1.97853 0.7742,1.03227 -0.86023,3.69899 -2.49466,3.18284 -4.38717,-2.06455 0,-1.80648 -1.20432,-2.49466 -0.68818,-3.18285 -3.61296,2.06455 -2.75273,-0.25807 -3.87103,-2.06455 -3.61296,-3.95705 -3.09683,0.60216 -0.086,-1.54841 -5.33342,-3.44091 -2.15057,0 0,-2.49467 -1.80648,1.54841 -1.20432,-1.11829 -6.10763,-0.17205 -2.40864,-1.8925 -3.35489,0.086 -3.95705,-2.66671 0.43011,-6.10762 0.94625,-0.77421 3.09683,0.86023 0.86023,1.29034 5.67751,-0.68818 1.46238,-1.29034 2.32262,1.29034 2.58069,-1.20432 1.37637,-2.32262 1.97852,-0.60216 z"
     id="gafor_76"
     inkscape:connector-curvature="0" />
  <path
     style="fill:none;fill-rule:evenodd;stroke:#000000;stroke-width:1px;stroke-linecap:butt;stroke-linejoin:miter;stroke-opacity:1"
     d="m 132.04512,264.86446 c 0.51614,0.34409 2.40865,1.72045 2.75274,1.72045 0.34409,0 1.72045,0 1.72045,0 l 1.89251,1.1183 -0.086,11.269 -1.63444,2.66671 -2.32262,4.04307 1.37637,1.72046 0,1.97853 3.26887,3.52693 c 0,0 -0.086,0.86023 0.086,1.37637 0.17205,0.51614 1.80648,3.0108 1.80648,3.0108 l -1.8925,2.06455 2.83875,2.83876 4.1291,0.17204 0.77421,-0.7742 1.97852,-0.17205 -0.086,-2.66671 -0.94625,-0.94625 c 0,0 0.34409,-2.75273 0.086,-3.09682 -0.25807,-0.3441 -2.15057,-2.83876 -2.15057,-2.83876 l 2.49466,-3.87103 1.97853,0 0.51614,2.66671 1.8925,1.29034 0.86023,1.97853 1.1183,-2.06455 2.15057,-1.54841 9.46252,-4.90331 4.12909,-2.32261 -0.086,-6.02161 -3.785,-4.64523 -0.25807,-1.54841 -0.77421,-0.77421 3.35489,-1.80648 -5.59148,-7.05388 -3.44092,-1.54841 -2.06455,-1.8925 -0.60216,-2.2366 -2.32262,-2.58068 -1.03227,-2.40864 -1.29034,-0.086 -1.1183,-1.72045 -2.92478,-0.17205 -2.32262,-2.83875 -3.61296,-0.25807 -0.86023,1.29034 -3.09682,-0.086 -1.89251,2.92477 0.25807,5.41945 z"
     id="gafor_56"
     inkscape:connector-curvature="0" />
  <path
     style="fill:none;fill-rule:evenodd;stroke:#000000;stroke-width:1px;stroke-linecap:butt;stroke-linejoin:miter;stroke-opacity:1"
     d="m 118.62556,269.76776 -3.52694,6.70978 -3.0108,2.92478 -0.3441,1.80648 -3.87103,3.0108 -2.49466,0.94626 -0.7742,5.07535 -1.1183,1.37636 0.68818,1.29034 2.49466,-0.17204 1.46239,2.15057 -0.94625,2.2366 -2.40864,2.15057 -0.17204,4.98933 2.6667,0.68818 1.20433,1.63443 1.29034,-1.46239 3.95705,-0.17204 2.06455,-1.63444 1.97853,-0.94625 3.09682,-0.25807 1.03227,-0.7742 3.69899,0 0.7742,-0.60216 1.72046,-0.43012 0.51614,-3.44091 2.83875,-0.43012 1.63444,2.2366 3.61296,-0.43012 2.32262,1.37637 1.46239,-2.15057 -1.29035,-2.92478 0,-1.80648 -3.52693,-3.52694 0.17204,-2.06455 -1.63443,-1.29034 4.21512,-6.79581 0,-11.09695 -1.89251,-1.29034 -1.80648,-0.17205 -2.58068,-1.63443 -2.06455,-0.17205 -2.32262,2.83875 -2.23659,0 -2.40864,0.86023 -1.54842,1.72046 -2.06455,-1.63443 z"
     id="gafor_55"
     inkscape:connector-curvature="0" />
  <path
     style="fill:none;fill-rule:evenodd;stroke:#000000;stroke-width:1px;stroke-linecap:butt;stroke-linejoin:miter;stroke-opacity:1"
     d="m 95.829491,274.49902 2.408641,0.94625 0.688183,3.44091 1.548415,2.83876 -9.978657,3.87103 -3.440916,2.15057 -1.462389,1.97853 0.08602,5.67751 -1.290343,1.46239 2.408641,2.49466 2.236595,2.49466 2.40864,2.15058 -0.258068,4.04307 -1.892504,3.95705 -0.688183,2.49467 -4.731258,3.26887 -0.946252,2.75273 -2.666709,3.52694 0.172045,1.03227 9.290472,-5.07535 2.752732,0.43012 4.129098,-1.89251 9.634566,-6.45171 5.84956,-2.40864 5.93557,-2.49467 -4.12909,-2.58068 -4.30115,0.60216 -0.94625,1.54841 -1.20432,-1.72046 -2.92478,-0.94625 0.086,-4.9033 2.58068,-1.97853 0.86023,-2.2366 -1.37637,-2.23659 -2.32261,-0.086 -1.1183,-1.29035 1.46239,-1.20432 0.68818,-5.16137 2.32262,-0.86023 3.95705,-2.92478 0.43012,-1.97852 3.35489,-2.66671 3.35489,-6.88183 -12.55934,-4.55922 -0.68818,2.92478 -1.80648,0.68818 -2.75274,2.32262 -2.838754,1.46239 z"
     id="gafor_53"
     inkscape:connector-curvature="0" />
  <path
     style="fill:none;fill-rule:evenodd;stroke:#000000;stroke-width:1px;stroke-linecap:butt;stroke-linejoin:miter;stroke-opacity:1"
     d="m 84.216402,296.69292 -0.860229,0.86023 -7.828082,0.34409 -1.376366,-1.20432 6.967853,-7.48399 0.344092,-2.75273 1.548412,-0.086 3.096824,-2.58069 -0.172046,-3.0108 1.118297,-0.60216 -0.258068,-3.87103 4.473189,-0.17205 0.946252,-1.11829 3.354893,-0.68819 2.580686,1.03228 0.60216,3.61296 1.720461,2.66671 -9.892635,3.785 -3.785006,2.32262 -1.118298,2.06455 -0.08602,5.67751 z"
     id="gafor_52"
     inkscape:connector-curvature="0" />
  <path
     style="fill:none;fill-rule:evenodd;stroke:#000000;stroke-width:1px;stroke-linecap:butt;stroke-linejoin:miter;stroke-opacity:1"
     d="m 69.420466,265.55264 0.430115,5.84955 -2.236595,5.50547 -1.548412,5.67751 -3.010801,4.9033 -1.978526,4.98933 -3.957053,3.09682 -5.07535,1.46239 0,1.54842 7.570014,0.25806 1.032274,-1.54841 8.172174,0.34409 c 0,0 0.688183,-1.20432 1.118298,-1.20432 0.430114,0 4.129098,0.17205 4.129098,0.17205 l 7.053876,-7.39797 0.172046,-3.0108 1.720458,0.086 3.182846,-2.40864 -0.344091,-3.09682 1.290343,-0.60216 -0.344091,-3.52694 -1.720458,-5.67751 -13.763661,-5.2474 z"
     id="gafor_51"
     inkscape:connector-curvature="0" />
  <path
     style="fill:none;fill-rule:evenodd;stroke:#000000;stroke-width:1px;stroke-linecap:butt;stroke-linejoin:miter;stroke-opacity:1"
     d="m 19.011057,268.0473 2.580687,4.47319 2.752732,5.93558 -0.430115,3.09682 1.978527,-0.086 3.612961,-2.49466 3.096824,-0.17205 2.322617,2.66671 -0.688183,2.75273 3.785007,-0.60216 3.785007,1.1183 2.666709,-1.37637 c 0,0 -0.60216,-2.40864 0.172046,-2.06454 0.774206,0.34409 2.580687,0.60216 2.580687,0.60216 l 2.150572,3.35489 2.322617,2.83875 4.387167,0.086 0.774206,-0.94626 2.494664,1.37637 2.924778,-0.34409 3.354892,-4.64524 1.978527,-5.50546 2.064549,-6.70979 -0.344092,-5.16137 -0.688183,-1.37636 1.548412,-4.04308 1.548412,-3.52694 0.258069,-3.78501 1.118297,-1.11829 -1.032274,-5.59149 -2.150572,-1.8925 -3.182847,0.34409 -2.666709,1.80648 -2.236595,-2.06455 -8.774334,5.93558 -4.989328,3.0108 -3.0108,0.43011 -4.559213,5.07535 -2.408641,-0.51613 -1.462389,2.06455 -3.87103,0 -2.322618,2.32261 -2.322617,0 -1.290344,1.63444 -2.236595,0.086 -1.118297,1.1183 -2.666709,-0.77421 z"
     id="gafor_44"
     inkscape:connector-curvature="0" />
  <path
     style="fill:none;fill-rule:evenodd;stroke:#000000;stroke-width:1px;stroke-linecap:butt;stroke-linejoin:miter;stroke-opacity:1"
     d="m 51.785775,298.24133 -1.548412,4.38717 -1.634434,7.05388 -1.720458,5.16137 -1.548412,4.81728 -0.946252,4.21512 1.290344,1.29035 -3.182847,2.75273 -0.946252,5.59149 -3.182846,13.67763 2.40864,3.18285 2.66671,3.95705 3.096824,3.26887 0.774205,1.80648 15.742188,0.086 5.67751,-2.92478 -1.462389,-1.1183 -3.268869,0.34409 -2.064549,1.97853 -3.354893,-0.51614 -4.387167,-3.35489 -3.87103,1.1183 -1.290343,2.06455 -1.032274,-2.83876 0.08602,-6.19365 2.322618,-4.1291 4.903305,-5.50546 1.720457,-0.68818 1.118298,-1.03228 -0.688183,-4.38716 -1.720458,-2.40865 3.010801,-6.88183 0,-3.44091 1.548412,-2.66671 1.720457,-3.44092 0.688183,-3.0108 2.494664,-2.75273 2.236595,-3.52694 0.774206,-1.97852 5.419442,-5.67751 -3.698984,-0.25807 -1.290344,1.29034 -8.258196,-0.25807 -0.774206,1.63444 z"
     id="gafor_50"
     inkscape:connector-curvature="0" />
  <path
     style="fill:none;fill-rule:evenodd;stroke:#000000;stroke-width:1px;stroke-linecap:butt;stroke-linejoin:miter;stroke-opacity:1"
     d="m 67.872054,353.89814 0,-2.06455 c 0,0 5.591488,-9.97865 5.677511,-10.40877 0.08602,-0.43011 2.150572,-7.65604 2.150572,-7.65604 l 4.559213,-9.29047 2.924778,-4.21512 0.774205,-2.58068 4.387167,-3.09683 2.838756,-6.53774 0.258068,-3.87103 -7.311945,-7.22592 -1.290343,0.94625 -7.225922,0.25807 -1.892504,-1.63443 -5.419441,5.76353 -0.946252,2.49466 -2.064549,3.26887 -2.408641,2.40864 -0.774206,3.44092 -3.010801,5.33342 -0.172045,3.785 -2.752733,6.79581 1.634435,2.58069 0.774206,4.30114 -1.978526,1.37637 -1.462389,0.68818 -4.817282,5.76353 -1.80648,4.21513 c 0,0 0.516137,7.22592 0.516137,7.48399 0,0.25807 1.290343,-1.1183 1.290343,-1.1183 l 3.87103,-1.29034 4.645236,2.92477 3.096824,0.77421 1.548411,-1.8925 4.129099,-0.25807 z"
     id="gafor_61"
     inkscape:connector-curvature="0" />
  <path
     style="fill:none;fill-rule:evenodd;stroke:#000000;stroke-width:1px;stroke-linecap:butt;stroke-linejoin:miter;stroke-opacity:1"
     d="m 68.130123,353.382 2.924778,-0.86023 7.139899,-6.70978 1.376366,1.54841 -2.150572,1.72046 -1.032274,1.63443 4.387167,2.06455 3.354892,-1.8925 1.806481,-0.86023 1.032274,-0.68818 -0.60216,-2.49467 -1.032274,-1.37636 4.215121,-3.09683 5.935579,-2.83875 1.634435,-0.68819 0,-2.40864 4.817285,-3.26887 2.06455,-0.34409 6.27967,-3.785 5.93557,-3.61297 7.1399,-5.84955 6.96786,-4.90331 5.84955,-3.785 3.3549,-1.29035 c 0,0 1.29034,1.46239 1.80648,1.20432 0.51613,-0.25806 1.54841,-0.17204 1.54841,-0.17204 l 3.18284,-2.66671 2.58069,-1.72046 -2.66671,-3.78501 -3.95705,-0.17204 -2.75273,-2.75273 -2.83876,-1.37637 -3.18284,0.34409 -1.80649,-2.23659 -2.49466,0.68818 -0.51614,3.26887 -1.8925,0.34409 -0.51614,0.94625 -4.30114,-0.086 -0.86023,0.86023 -3.09682,0 -3.09683,2.58069 3.78501,2.32261 -11.87116,4.98933 -7.656035,5.07535 -6.365693,3.35489 -3.096824,-0.25807 -9.376494,4.98933 -3.785007,8.00013 -2.408641,7.9141 -5.591487,10.32275 z"
     id="gafor_62"
     inkscape:connector-curvature="0" />
  <path
     style="fill:none;fill-rule:evenodd;stroke:#000000;stroke-width:1px;stroke-linecap:butt;stroke-linejoin:miter;stroke-opacity:1"
     d="m 68.732283,356.73689 c 0.344092,0 2.236595,0 2.236595,0 l 1.032275,1.89251 4.645235,-0.34409 0.946252,-0.60216 1.290343,1.72045 c 0,0 2.66671,-2.58068 3.182847,-2.66671 0.516137,-0.086 4.301144,-1.03227 4.301144,-1.03227 l 4.989327,-0.77421 4.043076,-1.29034 c 0,0 5.075353,2.49466 5.677513,2.92478 0.60216,0.43011 4.04307,2.83875 4.04307,2.83875 l 2.75273,4.55922 5.84956,1.29034 -3.09682,2.58069 0.60216,2.32261 3.0108,-1.03227 2.49466,-2.40864 0.17205,-3.61296 1.03227,-1.29035 -1.97852,-3.09682 -3.26887,-0.43011 -0.77421,-2.32262 0.25807,-5.76354 -3.18285,0.43012 -3.0108,1.54841 -4.64523,-3.69898 -5.935583,-2.32262 -9.806609,-1.03228 1.290343,2.2366 0,1.97853 -5.763533,3.35489 -4.817281,-1.97853 1.290343,-1.54841 1.892504,-1.80648 -1.634435,-1.46239 -6.709785,6.45172 -3.182847,1.29034 -0.172045,1.80648 z"
     id="gafor_71"
     inkscape:connector-curvature="0" />
  <path
     style="fill:none;fill-rule:evenodd;stroke:#000000;stroke-width:1px;stroke-linecap:butt;stroke-linejoin:miter;stroke-opacity:1"
     d="m 116.30294,325.59661 1.8925,1.46239 11.69911,-6.10763 4.38717,-0.68818 0.94625,-1.72046 3.09683,-2.66671 1.11829,-0.60216 4.38717,0.3441 1.29034,-1.29035 4.81728,0.51614 0.77421,2.40864 1.54841,0 1.1183,1.20432 1.54841,-0.25807 3.09683,2.66671 -2.15058,2.75273 -0.25807,1.1183 -1.63443,1.46239 0.43011,2.40864 -2.15057,2.75273 0.51614,5.16138 -5.93558,2.32261 -3.26887,1.03228 -4.47319,1.03227 -4.21512,2.06455 -2.06455,0.77421 -3.0108,2.40864 0.086,1.54841 -8.43024,8.08615 -1.20432,-0.43011 -3.09682,2.83875 -1.29035,0.51614 -3.18284,-0.34409 -0.68819,-2.06455 0.34409,-6.10763 -3.44091,0.51614 -2.92478,1.54841 -4.81728,-3.87103 -5.935579,-2.06455 c 0,0 -9.892631,-0.7742 -9.54854,-1.03227 0.344092,-0.25807 3.612961,-3.0108 3.612961,-3.0108 l 7.914105,-3.52694 0.08602,-2.32262 4.731263,-3.52693 1.54841,0.086 z"
     id="gafor_72"
     inkscape:connector-curvature="0" />
  <path
     style="fill:none;fill-rule:evenodd;stroke:#000000;stroke-width:1px;stroke-linecap:butt;stroke-linejoin:miter;stroke-opacity:1"
     d="m 154.84119,318.19864 -0.60216,-1.72046 0.25807,-1.97852 -1.20432,-1.80648 2.92477,-1.20432 3.09683,0.086 0.51614,2.06455 0,2.83875 1.20432,1.80649 2.83875,-3.52694 -0.086,-1.46239 6.0216,-3.09683 0.60216,-0.86022 2.58069,-0.25807 1.20432,-2.06455 1.63443,-0.25807 1.72046,-2.83876 5.76353,-3.35489 1.20432,-2.23659 0,-2.83876 c 0,0 1.29035,1.46239 1.80648,1.37637 0.51614,-0.086 3.26887,-3.26887 3.26887,-3.26887 l -1.54841,-2.32262 -1.8925,1.37637 -2.92478,2.06455 -3.44092,0.34409 -1.54841,-1.03228 -1.20432,1.72046 -2.15057,0 -1.29034,2.49466 -1.63444,1.20432 -6.0216,-0.17204 -3.44091,0.68818 -1.29035,1.37637 -3.0108,1.37636 -2.83875,0.60216 -0.86023,0.94626 -2.75274,-0.25807 -3.18284,-2.66671 -2.49467,1.29034 2.83876,3.61296 -5.67751,4.21512 -2.15057,0.51614 -1.46239,-1.37637 -3.35489,1.1183 -10.23673,7.05388 -9.20445,7.57001 1.46239,1.54841 11.69912,-6.0216 4.55921,-0.7742 0.60216,-1.54842 4.21512,-3.35489 4.47319,0.25807 1.20432,-1.29034 4.98933,0.51613 0.94625,2.49467 1.29034,0 1.1183,1.1183 z"
     id="gafor_73"
     inkscape:connector-curvature="0" />
  <path
     style="fill:none;fill-rule:evenodd;stroke:#000000;stroke-width:1px;stroke-linecap:butt;stroke-linejoin:miter;stroke-opacity:1"
     d="m 152.86266,336.26345 4.38717,-0.17205 1.03227,-1.29034 1.29035,1.03227 0.68818,-0.86023 3.35489,0 4.98933,-1.80648 c 0,0 1.63443,0.086 2.06455,0.086 0.43011,0 3.0108,-1.54842 3.0108,-1.54842 l 2.58069,-1.11829 3.95705,-1.20432 5.16137,-1.80648 6.10763,-1.89251 2.66671,0.17205 3.18284,1.97853 1.89251,-0.086 3.95705,2.75273 4.73126,2.66671 3.44091,1.37637 0.086,-2.06455 3.61296,-3.18285 0.34409,-1.80648 3.26887,0 2.58068,-2.58068 3.44092,-1.29035 2.75273,0 2.40864,-2.32261 1.97853,-0.25807 0.34409,-8.94638 -1.1183,0.43011 -2.66671,-0.94625 -0.17204,-2.23659 -2.58069,-1.46239 -3.0108,-0.17205 -1.37637,-1.03227 -1.8925,0.7742 -1.20432,-1.63443 -2.58069,0.60216 -1.11829,-1.03228 -4.04308,-0.25807 -6.53774,2.83876 -0.17204,-1.8925 3.69898,-5.07535 -1.8925,-1.54842 -8.00013,0.17205 -1.03228,-1.20432 -3.0108,-0.68818 -2.75273,-1.89251 -1.20432,-1.46239 -2.83875,2.40864 -1.63444,-0.68818 -0.25807,2.2366 -1.20432,2.23659 -5.76353,3.35489 -1.46239,2.83876 -2.32262,0.25807 -0.7742,2.06455 -2.58069,0.25807 -6.53774,3.87103 -0.17205,1.80648 -2.83875,3.18284 -1.29034,-1.46239 0,-3.0108 -0.51614,-2.06455 -2.92478,-0.25807 -2.75273,1.1183 0.86023,1.80648 -0.086,1.80648 0.77421,1.80648 3.09682,2.83876 -2.15057,2.49466 -0.34409,1.37637 -1.63443,1.29034 0.51613,2.58069 -2.15057,2.58068 z"
     id="gafor_74"
     inkscape:connector-curvature="0" />
  <path
     style="fill:none;fill-rule:evenodd;stroke:#000000;stroke-width:1px;stroke-linecap:butt;stroke-linejoin:miter;stroke-opacity:1"
     d="m 152.86266,336.69356 -0.7742,4.81728 2.32261,1.72046 -0.086,4.21512 -1.37636,0.94625 3.785,6.02161 3.09683,0.17204 1.80648,1.1183 2.06455,-0.086 7.48399,-4.47319 1.72045,-0.94626 3.09683,0.17205 0.68818,-1.46239 2.66671,0 1.37637,1.63444 4.55921,-0.60216 1.1183,-0.86023 3.0108,0.34409 2.40864,1.8925 4.81728,-3.26887 0.94625,-0.94625 3.0108,-0.34409 1.54841,1.97853 2.06455,-0.68819 3.52694,-1.46239 4.64524,-0.34409 1.29034,1.20432 2.40864,-0.086 0.77421,1.8925 2.75273,-3.52694 0.34409,-2.06454 -2.49466,-3.01081 -2.58069,-0.7742 -0.77421,-1.37637 -2.75273,-4.04307 -4.38716,-1.80648 -4.21513,-2.32262 -3.35489,-2.66671 -2.32262,0.17205 -2.75273,-1.97853 -3.0108,-0.17205 -10.32274,3.44092 -6.45172,2.32262 -3.69899,2.06455 -2.40864,0 -4.55921,1.72045 -3.61296,-0.086 -0.86023,0.86023 -1.03227,-1.1183 -0.94625,1.20432 -4.21513,0.51614 z"
     id="gafor_82"
     inkscape:connector-curvature="0" />
  <path
     style="fill:none;fill-rule:evenodd;stroke:#000000;stroke-width:1px;stroke-linecap:butt;stroke-linejoin:miter;stroke-opacity:1"
     d="m 117.50726,358.37133 3.18284,1.29034 2.58069,-0.25807 1.20432,1.29035 3.69899,-0.51614 1.03227,-1.03228 3.52694,0.3441 1.03227,-1.20432 2.40864,0.17204 1.46239,-0.86023 1.54841,0.086 1.63444,-1.20432 2.49466,1.8925 2.58069,0.25807 2.32262,-0.77421 3.87103,-1.37636 1.63443,-0.94626 3.0108,-0.086 0.25807,-1.03227 -3.95705,-5.84956 1.20432,-1.37637 0.17204,-4.12909 -2.32261,-1.46239 0.60216,-5.16138 -8.00013,3.26887 -5.33342,1.20432 -6.19365,2.75274 -3.26887,2.40864 -0.086,1.97852 -8.00013,7.74206 -1.46239,-0.34409 z"
     id="gafor_81"
     inkscape:connector-curvature="0" />
  <path
     style="fill:none;fill-rule:evenodd;stroke:#000000;stroke-width:1px;stroke-linecap:butt;stroke-linejoin:miter;stroke-opacity:1"
     d="m 117.50726,363.10259 3.61296,0.34409 c 0,0 0.43011,6.36569 0.7742,6.36569 0.3441,0 1.29035,0.34409 1.29035,0.34409 l 9.20445,4.04308 2.15057,0.43011 4.38717,-1.29034 2.83875,-3.09682 1.80648,-4.38717 5.76353,-1.54841 6.45172,-1.03228 3.61296,-1.29034 1.80648,-2.32262 -2.49466,-0.7742 -0.77421,-1.54842 0.086,-2.92477 -1.1183,0.34409 0,0.7742 -3.26887,0 -1.54841,1.03228 -6.53774,2.06455 -2.06455,-0.086 -2.83876,-2.06454 -1.46239,1.20432 -0.86022,-0.3441 -2.2366,1.29035 -2.06455,-0.51614 -1.1183,1.37637 -3.785,-0.43012 -1.29035,1.37637 -3.09682,0.25807 -1.63443,-1.29035 -2.32262,0.25807 -3.09683,-1.37636 -1.29034,0.43011 1.63443,3.26887 z"
     id="gafor_83"
     inkscape:connector-curvature="0" />
  <path
     style="fill:none;fill-rule:evenodd;stroke:#000000;stroke-width:1px;stroke-linecap:butt;stroke-linejoin:miter;stroke-opacity:1"
     d="m 155.61539,363.70475 1.1183,2.15057 0.86023,1.54841 1.80648,-0.60216 3.61296,-1.80648 2.32262,1.97853 1.97853,-1.72046 3.61296,-0.17205 -1.80648,-1.80648 1.80648,-1.29034 2.06455,0.086 3.87103,-3.52694 6.45171,0.17205 2.06455,-2.15057 9.11843,0.086 0.43011,-1.97853 2.32262,0.94626 2.92478,-1.72046 3.09682,0.17204 0.68818,1.97853 5.16138,-2.92478 3.95705,-0.34409 0.77421,2.32262 1.03227,1.20432 -0.25807,3.18285 2.32262,0.7742 1.97853,1.80648 2.58068,0.60216 -0.086,-3.785 1.63443,-1.1183 -0.60216,-2.75273 1.46239,-1.03228 -1.46239,-1.29034 -0.086,-1.89251 -5.24739,0.17205 -0.086,-1.63443 -0.94625,-1.89251 -2.58069,0 -1.03227,-1.29034 -4.47319,0.43011 -5.93558,2.40864 -1.72046,-2.23659 -2.66671,0.43011 -0.7742,0.86023 -4.90331,3.3549 -2.75273,-2.06455 -2.40864,-0.3441 -1.72046,1.03228 -4.21512,0.60216 -1.46239,-1.80648 -2.83875,0.25807 -0.51614,1.29034 -2.92478,-0.25807 -9.29047,5.41944 -2.06455,0.25807 -2.06455,-1.37636 -1.72045,0 0.086,3.0108 0.94625,1.54841 2.32262,0.7742 -1.89251,2.15058 z"
     id="gafor_84"
     inkscape:connector-curvature="0" />
  <path
     style="fill:none;fill-rule:evenodd;stroke:#000000;stroke-width:1px;stroke-linecap:butt;stroke-linejoin:miter;stroke-opacity:1"
     d="m 148.56152,301.08009 3.09683,2.75273 c 0,0 1.97852,0.51614 2.40864,0.51614 0.43011,0 1.37636,-1.1183 1.37636,-1.1183 l 2.83876,-0.60216 2.92478,-1.20432 1.03227,-1.29034 3.44092,-0.68819 6.19364,-0.086 1.54842,-1.1183 1.54841,-2.75273 1.97852,0.34409 1.29035,-1.80648 1.63443,1.1183 3.26887,-0.43012 4.73126,-3.35489 -2.83875,-5.84956 -1.97853,-9.11842 -2.40864,-3.52694 -3.78501,-4.64524 -7.48399,0.60217 -0.68818,-0.60217 -3.3549,1.80649 0.86023,0.86022 0.17205,1.46239 3.87103,4.90331 0.086,5.67751 -13.67764,7.22592 -2.23659,1.8925 -0.94625,1.89251 -1.03228,-1.97853 -1.80648,-1.29034 -0.60216,-2.75273 -1.80648,0.17204 -2.49466,3.44092 2.06455,3.0108 0.086,2.92478 0.94625,1.37636 z"
     id="gafor_63"
     inkscape:connector-curvature="0" />
</svg>
